<mxfile host="app.diagrams.net" agent="Mozilla/5.0 (Windows NT 10.0; Win64; x64) AppleWebKit/537.36 (KHTML, like Gecko) Chrome/135.0.0.0 Safari/537.36" version="26.2.14">
  <diagram name="Page-1" id="haGcUabTmLYKC5GYNQmb">
    <mxGraphModel dx="989" dy="1173" grid="1" gridSize="10" guides="1" tooltips="1" connect="1" arrows="1" fold="1" page="1" pageScale="1" pageWidth="850" pageHeight="1100" math="0" shadow="0">
      <root>
        <mxCell id="0" />
        <mxCell id="1" parent="0" />
        <mxCell id="2n1tmDHVa9wgUNYWpOkP-5" value="AlertService" style="swimlane;fontStyle=1;align=center;verticalAlign=top;childLayout=stackLayout;horizontal=1;startSize=26;horizontalStack=0;resizeParent=1;resizeParentMax=0;resizeLast=0;collapsible=1;marginBottom=0;whiteSpace=wrap;html=1;" parent="1" vertex="1">
          <mxGeometry x="270" y="110" width="270" height="114" as="geometry" />
        </mxCell>
        <mxCell id="2n1tmDHVa9wgUNYWpOkP-6" value="+pollIntervalSec: int" style="text;strokeColor=none;fillColor=none;align=left;verticalAlign=top;spacingLeft=4;spacingRight=4;overflow=hidden;rotatable=0;points=[[0,0.5],[1,0.5]];portConstraint=eastwest;whiteSpace=wrap;html=1;" parent="2n1tmDHVa9wgUNYWpOkP-5" vertex="1">
          <mxGeometry y="26" width="270" height="34" as="geometry" />
        </mxCell>
        <mxCell id="vtwkwkI9b6s9OjrsWei4-12" value="" style="line;strokeWidth=1;fillColor=none;align=left;verticalAlign=middle;spacingTop=-1;spacingLeft=3;spacingRight=3;rotatable=0;labelPosition=right;points=[];portConstraint=eastwest;strokeColor=inherit;" vertex="1" parent="2n1tmDHVa9wgUNYWpOkP-5">
          <mxGeometry y="60" width="270" height="10" as="geometry" />
        </mxCell>
        <mxCell id="vtwkwkI9b6s9OjrsWei4-14" value="+checkAllSensors(): void&lt;div&gt;+registerListener(I: AlertListner): void&lt;/div&gt;" style="text;strokeColor=none;fillColor=none;align=left;verticalAlign=top;spacingLeft=4;spacingRight=4;overflow=hidden;rotatable=0;points=[[0,0.5],[1,0.5]];portConstraint=eastwest;whiteSpace=wrap;html=1;" vertex="1" parent="2n1tmDHVa9wgUNYWpOkP-5">
          <mxGeometry y="70" width="270" height="44" as="geometry" />
        </mxCell>
        <mxCell id="2n1tmDHVa9wgUNYWpOkP-9" value="NotificationManager" style="swimlane;fontStyle=1;align=center;verticalAlign=top;childLayout=stackLayout;horizontal=1;startSize=26;horizontalStack=0;resizeParent=1;resizeParentMax=0;resizeLast=0;collapsible=1;marginBottom=0;whiteSpace=wrap;html=1;" parent="1" vertex="1">
          <mxGeometry x="260" y="610" width="200" height="70" as="geometry" />
        </mxCell>
        <mxCell id="2n1tmDHVa9wgUNYWpOkP-10" value="+showBanner(msg: String): void&lt;div&gt;+sendPush(msg:Sting): void&lt;/div&gt;" style="text;strokeColor=none;fillColor=none;align=left;verticalAlign=top;spacingLeft=4;spacingRight=4;overflow=hidden;rotatable=0;points=[[0,0.5],[1,0.5]];portConstraint=eastwest;whiteSpace=wrap;html=1;" parent="2n1tmDHVa9wgUNYWpOkP-9" vertex="1">
          <mxGeometry y="26" width="200" height="44" as="geometry" />
        </mxCell>
        <mxCell id="2n1tmDHVa9wgUNYWpOkP-13" value="MapView" style="swimlane;fontStyle=1;align=center;verticalAlign=top;childLayout=stackLayout;horizontal=1;startSize=26;horizontalStack=0;resizeParent=1;resizeParentMax=0;resizeLast=0;collapsible=1;marginBottom=0;whiteSpace=wrap;html=1;" parent="1" vertex="1">
          <mxGeometry x="555" y="530" width="295" height="110" as="geometry" />
        </mxCell>
        <mxCell id="2n1tmDHVa9wgUNYWpOkP-14" value="-mapObject: MapLib.Map" style="text;strokeColor=none;fillColor=none;align=left;verticalAlign=top;spacingLeft=4;spacingRight=4;overflow=hidden;rotatable=0;points=[[0,0.5],[1,0.5]];portConstraint=eastwest;whiteSpace=wrap;html=1;" parent="2n1tmDHVa9wgUNYWpOkP-13" vertex="1">
          <mxGeometry y="26" width="295" height="34" as="geometry" />
        </mxCell>
        <mxCell id="2n1tmDHVa9wgUNYWpOkP-15" value="" style="line;strokeWidth=1;fillColor=none;align=left;verticalAlign=middle;spacingTop=-1;spacingLeft=3;spacingRight=3;rotatable=0;labelPosition=right;points=[];portConstraint=eastwest;strokeColor=inherit;" parent="2n1tmDHVa9wgUNYWpOkP-13" vertex="1">
          <mxGeometry y="60" width="295" height="8" as="geometry" />
        </mxCell>
        <mxCell id="2n1tmDHVa9wgUNYWpOkP-16" value="&lt;div&gt;+plotSensors(s: List,Sensor&amp;gt;): void&lt;/div&gt;&lt;div&gt;+highlight(s: Sensor, level: AlertLevel): void&lt;/div&gt;" style="text;strokeColor=none;fillColor=none;align=left;verticalAlign=top;spacingLeft=4;spacingRight=4;overflow=hidden;rotatable=0;points=[[0,0.5],[1,0.5]];portConstraint=eastwest;whiteSpace=wrap;html=1;" parent="2n1tmDHVa9wgUNYWpOkP-13" vertex="1">
          <mxGeometry y="68" width="295" height="42" as="geometry" />
        </mxCell>
        <mxCell id="2n1tmDHVa9wgUNYWpOkP-25" value="" style="endArrow=classic;html=1;rounded=0;entryX=0.5;entryY=0;entryDx=0;entryDy=0;exitX=0.75;exitY=1;exitDx=0;exitDy=0;" parent="1" source="2n1tmDHVa9wgUNYWpOkP-5" target="2n1tmDHVa9wgUNYWpOkP-13" edge="1">
          <mxGeometry relative="1" as="geometry">
            <mxPoint x="358" y="320" as="sourcePoint" />
            <mxPoint x="493" y="352" as="targetPoint" />
            <Array as="points">
              <mxPoint x="690" y="360" />
              <mxPoint x="730" y="420" />
              <mxPoint x="750" y="480" />
            </Array>
          </mxGeometry>
        </mxCell>
        <mxCell id="2n1tmDHVa9wgUNYWpOkP-26" value="Updates&lt;div&gt;&lt;br&gt;&lt;/div&gt;" style="edgeLabel;resizable=0;html=1;;align=center;verticalAlign=middle;" parent="2n1tmDHVa9wgUNYWpOkP-25" connectable="0" vertex="1">
          <mxGeometry relative="1" as="geometry" />
        </mxCell>
        <mxCell id="2n1tmDHVa9wgUNYWpOkP-27" value="" style="endArrow=classic;html=1;rounded=0;entryX=0.5;entryY=0;entryDx=0;entryDy=0;exitX=0.212;exitY=1.04;exitDx=0;exitDy=0;exitPerimeter=0;" parent="1" source="vtwkwkI9b6s9OjrsWei4-14" target="2n1tmDHVa9wgUNYWpOkP-9" edge="1">
          <mxGeometry relative="1" as="geometry">
            <mxPoint x="320" y="210" as="sourcePoint" />
            <mxPoint x="90" y="280" as="targetPoint" />
            <Array as="points">
              <mxPoint x="320" y="480" />
            </Array>
          </mxGeometry>
        </mxCell>
        <mxCell id="2n1tmDHVa9wgUNYWpOkP-28" value="Alerts" style="edgeLabel;resizable=0;html=1;;align=center;verticalAlign=middle;" parent="2n1tmDHVa9wgUNYWpOkP-27" connectable="0" vertex="1">
          <mxGeometry relative="1" as="geometry" />
        </mxCell>
        <mxCell id="p-UfqK0PSyqCbuv032Sd-2" value="AlertListener" style="swimlane;fontStyle=1;align=center;verticalAlign=top;childLayout=stackLayout;horizontal=1;startSize=26;horizontalStack=0;resizeParent=1;resizeParentMax=0;resizeLast=0;collapsible=1;marginBottom=0;whiteSpace=wrap;html=1;" parent="1" vertex="1">
          <mxGeometry x="380" y="400" width="270" height="60" as="geometry" />
        </mxCell>
        <mxCell id="p-UfqK0PSyqCbuv032Sd-3" value="+onAlert(sensor: Sensor, level: AlertLevel): void" style="text;strokeColor=none;fillColor=none;align=left;verticalAlign=top;spacingLeft=4;spacingRight=4;overflow=hidden;rotatable=0;points=[[0,0.5],[1,0.5]];portConstraint=eastwest;whiteSpace=wrap;html=1;" parent="p-UfqK0PSyqCbuv032Sd-2" vertex="1">
          <mxGeometry y="26" width="270" height="34" as="geometry" />
        </mxCell>
        <mxCell id="p-UfqK0PSyqCbuv032Sd-4" value="Sensor" style="swimlane;fontStyle=1;align=center;verticalAlign=top;childLayout=stackLayout;horizontal=1;startSize=26;horizontalStack=0;resizeParent=1;resizeParentMax=0;resizeLast=0;collapsible=1;marginBottom=0;whiteSpace=wrap;html=1;" parent="1" vertex="1">
          <mxGeometry x="20" y="250" width="180" height="164" as="geometry" />
        </mxCell>
        <mxCell id="p-UfqK0PSyqCbuv032Sd-5" value="-sensorId:UUID&lt;div&gt;-latitude: double&lt;/div&gt;&lt;div&gt;-longitude: double&lt;/div&gt;&lt;div&gt;-sensorType: String&lt;/div&gt;&lt;div&gt;-currentValue: double&lt;/div&gt;&lt;div&gt;-unit: String&lt;/div&gt;" style="text;strokeColor=none;fillColor=none;align=left;verticalAlign=top;spacingLeft=4;spacingRight=4;overflow=hidden;rotatable=0;points=[[0,0.5],[1,0.5]];portConstraint=eastwest;whiteSpace=wrap;html=1;" parent="p-UfqK0PSyqCbuv032Sd-4" vertex="1">
          <mxGeometry y="26" width="180" height="104" as="geometry" />
        </mxCell>
        <mxCell id="p-UfqK0PSyqCbuv032Sd-6" value="" style="line;strokeWidth=1;fillColor=none;align=left;verticalAlign=middle;spacingTop=-1;spacingLeft=3;spacingRight=3;rotatable=0;labelPosition=right;points=[];portConstraint=eastwest;strokeColor=inherit;" parent="p-UfqK0PSyqCbuv032Sd-4" vertex="1">
          <mxGeometry y="130" width="180" height="8" as="geometry" />
        </mxCell>
        <mxCell id="p-UfqK0PSyqCbuv032Sd-7" value="+readValue(): Measurement" style="text;strokeColor=none;fillColor=none;align=left;verticalAlign=top;spacingLeft=4;spacingRight=4;overflow=hidden;rotatable=0;points=[[0,0.5],[1,0.5]];portConstraint=eastwest;whiteSpace=wrap;html=1;" parent="p-UfqK0PSyqCbuv032Sd-4" vertex="1">
          <mxGeometry y="138" width="180" height="26" as="geometry" />
        </mxCell>
        <mxCell id="p-UfqK0PSyqCbuv032Sd-8" value="Threshold" style="swimlane;fontStyle=1;align=center;verticalAlign=top;childLayout=stackLayout;horizontal=1;startSize=26;horizontalStack=0;resizeParent=1;resizeParentMax=0;resizeLast=0;collapsible=1;marginBottom=0;whiteSpace=wrap;html=1;" parent="1" vertex="1">
          <mxGeometry x="20" y="460" width="210" height="104" as="geometry" />
        </mxCell>
        <mxCell id="p-UfqK0PSyqCbuv032Sd-9" value="-warningLevel: double&lt;div&gt;-emergencyLevel: double&amp;nbsp;&lt;/div&gt;" style="text;strokeColor=none;fillColor=none;align=left;verticalAlign=top;spacingLeft=4;spacingRight=4;overflow=hidden;rotatable=0;points=[[0,0.5],[1,0.5]];portConstraint=eastwest;whiteSpace=wrap;html=1;" parent="p-UfqK0PSyqCbuv032Sd-8" vertex="1">
          <mxGeometry y="26" width="210" height="44" as="geometry" />
        </mxCell>
        <mxCell id="p-UfqK0PSyqCbuv032Sd-10" value="" style="line;strokeWidth=1;fillColor=none;align=left;verticalAlign=middle;spacingTop=-1;spacingLeft=3;spacingRight=3;rotatable=0;labelPosition=right;points=[];portConstraint=eastwest;strokeColor=inherit;" parent="p-UfqK0PSyqCbuv032Sd-8" vertex="1">
          <mxGeometry y="70" width="210" height="8" as="geometry" />
        </mxCell>
        <mxCell id="p-UfqK0PSyqCbuv032Sd-11" value="+evaluate(value; double): AlertLevel" style="text;strokeColor=none;fillColor=none;align=left;verticalAlign=top;spacingLeft=4;spacingRight=4;overflow=hidden;rotatable=0;points=[[0,0.5],[1,0.5]];portConstraint=eastwest;whiteSpace=wrap;html=1;" parent="p-UfqK0PSyqCbuv032Sd-8" vertex="1">
          <mxGeometry y="78" width="210" height="26" as="geometry" />
        </mxCell>
        <mxCell id="vtwkwkI9b6s9OjrsWei4-1" value="" style="endArrow=classic;html=1;rounded=0;exitX=-0.002;exitY=0.373;exitDx=0;exitDy=0;entryX=0.5;entryY=0;entryDx=0;entryDy=0;exitPerimeter=0;" edge="1" parent="1" source="2n1tmDHVa9wgUNYWpOkP-6">
          <mxGeometry relative="1" as="geometry">
            <mxPoint x="232.05999999999995" y="173.99599999999987" as="sourcePoint" />
            <mxPoint x="115" y="250" as="targetPoint" />
            <Array as="points">
              <mxPoint x="150" y="210" />
            </Array>
          </mxGeometry>
        </mxCell>
        <mxCell id="vtwkwkI9b6s9OjrsWei4-2" value="Polls" style="edgeLabel;resizable=0;html=1;;align=center;verticalAlign=middle;" connectable="0" vertex="1" parent="vtwkwkI9b6s9OjrsWei4-1">
          <mxGeometry relative="1" as="geometry" />
        </mxCell>
        <mxCell id="vtwkwkI9b6s9OjrsWei4-3" value="" style="endArrow=classic;html=1;rounded=0;exitX=0.452;exitY=0.977;exitDx=0;exitDy=0;entryX=0.5;entryY=0;entryDx=0;entryDy=0;exitPerimeter=0;" edge="1" parent="1" source="p-UfqK0PSyqCbuv032Sd-7">
          <mxGeometry relative="1" as="geometry">
            <mxPoint x="217" y="384" as="sourcePoint" />
            <mxPoint x="100" y="460" as="targetPoint" />
            <Array as="points">
              <mxPoint x="100" y="420" />
            </Array>
          </mxGeometry>
        </mxCell>
        <mxCell id="vtwkwkI9b6s9OjrsWei4-4" value="Evaluates" style="edgeLabel;resizable=0;html=1;;align=center;verticalAlign=middle;" connectable="0" vertex="1" parent="vtwkwkI9b6s9OjrsWei4-3">
          <mxGeometry relative="1" as="geometry" />
        </mxCell>
        <mxCell id="vtwkwkI9b6s9OjrsWei4-7" value="" style="endArrow=classic;html=1;rounded=0;exitX=0.654;exitY=0.012;exitDx=0;exitDy=0;exitPerimeter=0;" edge="1" parent="1" source="2n1tmDHVa9wgUNYWpOkP-9" target="p-UfqK0PSyqCbuv032Sd-3">
          <mxGeometry relative="1" as="geometry">
            <mxPoint x="401" y="510" as="sourcePoint" />
            <mxPoint x="425" y="581" as="targetPoint" />
            <Array as="points" />
          </mxGeometry>
        </mxCell>
        <mxCell id="vtwkwkI9b6s9OjrsWei4-9" value="" style="endArrow=classic;html=1;rounded=0;exitX=0.197;exitY=-0.017;exitDx=0;exitDy=0;exitPerimeter=0;entryX=0.593;entryY=0.962;entryDx=0;entryDy=0;entryPerimeter=0;" edge="1" parent="1" source="2n1tmDHVa9wgUNYWpOkP-13" target="p-UfqK0PSyqCbuv032Sd-3">
          <mxGeometry relative="1" as="geometry">
            <mxPoint x="410" y="612" as="sourcePoint" />
            <mxPoint x="499" y="480" as="targetPoint" />
            <Array as="points" />
          </mxGeometry>
        </mxCell>
        <mxCell id="vtwkwkI9b6s9OjrsWei4-5" value="" style="endArrow=classic;html=1;rounded=0;entryX=0.398;entryY=0.013;entryDx=0;entryDy=0;entryPerimeter=0;exitX=0.478;exitY=1.04;exitDx=0;exitDy=0;exitPerimeter=0;" edge="1" parent="1" source="vtwkwkI9b6s9OjrsWei4-14" target="p-UfqK0PSyqCbuv032Sd-2">
          <mxGeometry relative="1" as="geometry">
            <mxPoint x="390" y="210" as="sourcePoint" />
            <mxPoint x="410" y="608" as="targetPoint" />
            <Array as="points" />
          </mxGeometry>
        </mxCell>
        <mxCell id="vtwkwkI9b6s9OjrsWei4-6" value="notifies" style="edgeLabel;resizable=0;html=1;;align=center;verticalAlign=middle;" connectable="0" vertex="1" parent="vtwkwkI9b6s9OjrsWei4-5">
          <mxGeometry relative="1" as="geometry" />
        </mxCell>
      </root>
    </mxGraphModel>
  </diagram>
</mxfile>
